<svg xmlns="http://www.w3.org/2000/svg" viewBox="0 0 128 128">
  <rect width="128" height="128" fill="#ffffff"/>
  <rect x="16" y="8" width="96" height="112" rx="8" fill="#f6f6f6" stroke="#000" stroke-width="3"/>
  <rect x="20" y="18" width="88" height="70" fill="#f6f6f6"/>
  <path d="M48 73l-15-15a5 5 0 0 1 7-7l15 15 20-20a5 5 0 0 1 7 7L62 73l8 8a5 5 0 1 1-7 7l-8-8-8 8a5 5 0 0 1-7-7l8-8z" fill="#000"/>
  <rect x="20" y="90" width="88" height="26" fill="#000"/>
  <text x="64" y="108" text-anchor="middle" font-size="16" font-family="Arial, sans-serif" font-weight="700" fill="#fff">CANTEEN</text>
</svg>
